<svg width="559" height="379" viewBox="0 0 559 379" fill="none" xmlns="http://www.w3.org/2000/svg">
<g filter="url(#filter0_d_103_152)">
<circle cx="9.10266" cy="5.95825" r="5" fill="#7A3199"/>
<circle cx="9.10266" cy="65.9583" r="5" fill="#7A3199"/>
<circle cx="9.10266" cy="125.958" r="5" fill="#7A3199"/>
<circle cx="9.10266" cy="185.958" r="5" fill="#7A3199"/>
<circle cx="9.10266" cy="245.958" r="5" fill="#7A3199"/>
<circle cx="9.10266" cy="305.958" r="5" fill="#7A3199"/>
<circle cx="9.10266" cy="365.958" r="5" fill="#7A3199"/>
<circle cx="69.1027" cy="5.95825" r="5" fill="#7A3199"/>
<circle cx="69.1027" cy="65.9583" r="5" fill="#7A3199"/>
<circle cx="69.1027" cy="125.958" r="5" fill="#7A3199"/>
<circle cx="69.1027" cy="185.958" r="5" fill="#7A3199"/>
<circle cx="69.1027" cy="245.958" r="5" fill="#7A3199"/>
<circle cx="69.1027" cy="305.958" r="5" fill="#7A3199"/>
<circle cx="69.1027" cy="365.958" r="5" fill="#7A3199"/>
<circle cx="129.103" cy="5.95825" r="5" fill="#7A3199"/>
<circle cx="129.103" cy="65.9583" r="5" fill="#7A3199"/>
<circle cx="129.103" cy="125.958" r="5" fill="#7A3199"/>
<circle cx="129.103" cy="185.958" r="5" fill="#7A3199"/>
<circle cx="129.103" cy="245.958" r="5" fill="#7A3199"/>
<circle cx="129.103" cy="305.958" r="5" fill="#7A3199"/>
<circle cx="129.103" cy="365.958" r="5" fill="#7A3199"/>
<circle cx="189.103" cy="5.95825" r="5" fill="#7A3199"/>
<circle cx="189.103" cy="65.9583" r="5" fill="#7A3199"/>
<circle cx="189.103" cy="125.958" r="5" fill="#7A3199"/>
<circle cx="189.103" cy="185.958" r="5" fill="#7A3199"/>
<circle cx="189.103" cy="245.958" r="5" fill="#7A3199"/>
<circle cx="189.103" cy="305.958" r="5" fill="#7A3199"/>
<circle cx="189.103" cy="365.958" r="5" fill="#7A3199"/>
<circle cx="249.103" cy="5.95825" r="5" fill="#7A3199"/>
<circle cx="249.103" cy="65.9583" r="5" fill="#7A3199"/>
<circle cx="249.103" cy="125.958" r="5" fill="#7A3199"/>
<circle cx="249.103" cy="185.958" r="5" fill="#7A3199"/>
<circle cx="249.103" cy="245.958" r="5" fill="#7A3199"/>
<circle cx="249.103" cy="305.958" r="5" fill="#7A3199"/>
<circle cx="249.103" cy="365.958" r="5" fill="#7A3199"/>
<circle cx="309.103" cy="5.95825" r="5" fill="#7A3199"/>
<circle cx="309.103" cy="65.9583" r="5" fill="#7A3199"/>
<circle cx="309.103" cy="125.958" r="5" fill="#7A3199"/>
<circle cx="309.103" cy="185.958" r="5" fill="#7A3199"/>
<circle cx="309.103" cy="245.958" r="5" fill="#7A3199"/>
<circle cx="309.103" cy="305.958" r="5" fill="#7A3199"/>
<circle cx="309.103" cy="365.958" r="5" fill="#7A3199"/>
<circle cx="369.103" cy="5.95825" r="5" fill="#7A3199"/>
<circle cx="369.103" cy="65.9583" r="5" fill="#7A3199"/>
<circle cx="369.103" cy="125.958" r="5" fill="#7A3199"/>
<circle cx="369.103" cy="185.958" r="5" fill="#7A3199"/>
<circle cx="369.103" cy="245.958" r="5" fill="#7A3199"/>
<circle cx="369.103" cy="305.958" r="5" fill="#7A3199"/>
<circle cx="369.103" cy="365.958" r="5" fill="#7A3199"/>
<circle cx="429.103" cy="5.95825" r="5" fill="#7A3199"/>
<circle cx="429.103" cy="65.9583" r="5" fill="#7A3199"/>
<circle cx="429.103" cy="125.958" r="5" fill="#7A3199"/>
<circle cx="429.103" cy="185.958" r="5" fill="#7A3199"/>
<circle cx="429.103" cy="245.958" r="5" fill="#7A3199"/>
<circle cx="429.103" cy="305.958" r="5" fill="#7A3199"/>
<circle cx="429.103" cy="365.958" r="5" fill="#7A3199"/>
<circle cx="489.103" cy="5.95825" r="5" fill="#7A3199"/>
<circle cx="489.103" cy="65.9583" r="5" fill="#7A3199"/>
<circle cx="489.103" cy="125.958" r="5" fill="#7A3199"/>
<circle cx="489.103" cy="185.958" r="5" fill="#7A3199"/>
<circle cx="489.103" cy="245.958" r="5" fill="#7A3199"/>
<circle cx="489.103" cy="305.958" r="5" fill="#7A3199"/>
<circle cx="489.103" cy="365.958" r="5" fill="#7A3199"/>
<circle cx="549.103" cy="5.95825" r="5" fill="#7A3199"/>
<circle cx="549.103" cy="65.9583" r="5" fill="#7A3199"/>
<circle cx="549.103" cy="125.958" r="5" fill="#7A3199"/>
<circle cx="549.103" cy="185.958" r="5" fill="#7A3199"/>
<circle cx="549.103" cy="245.958" r="5" fill="#7A3199"/>
<circle cx="549.103" cy="305.958" r="5" fill="#7A3199"/>
<circle cx="549.103" cy="365.958" r="5" fill="#7A3199"/>
</g>
<defs>
<filter id="filter0_d_103_152" x="0.102661" y="0.958252" width="558" height="378" filterUnits="userSpaceOnUse" color-interpolation-filters="sRGB">
<feFlood flood-opacity="0" result="BackgroundImageFix"/>
<feColorMatrix in="SourceAlpha" type="matrix" values="0 0 0 0 0 0 0 0 0 0 0 0 0 0 0 0 0 0 127 0" result="hardAlpha"/>
<feOffset dy="4"/>
<feGaussianBlur stdDeviation="2"/>
<feComposite in2="hardAlpha" operator="out"/>
<feColorMatrix type="matrix" values="0 0 0 0 0 0 0 0 0 0 0 0 0 0 0 0 0 0 0.25 0"/>
<feBlend mode="normal" in2="BackgroundImageFix" result="effect1_dropShadow_103_152"/>
<feBlend mode="normal" in="SourceGraphic" in2="effect1_dropShadow_103_152" result="shape"/>
</filter>
</defs>
</svg>
