<svg width="605" height="371" viewBox="0 0 605 371" fill="none" xmlns="http://www.w3.org/2000/svg">
<circle cx="5.10266" cy="5.95825" r="5" fill="#7A3199"/>
<circle cx="5.10266" cy="65.9583" r="5" fill="#7A3199"/>
<circle cx="5.10266" cy="125.958" r="5" fill="#7A3199"/>
<circle cx="5.10266" cy="185.958" r="5" fill="#7A3199"/>
<circle cx="5.10266" cy="245.958" r="5" fill="#7A3199"/>
<circle cx="5.10266" cy="305.958" r="5" fill="#7A3199"/>
<circle cx="5.10266" cy="365.958" r="5" fill="#7A3199"/>
<circle cx="65.1027" cy="5.95825" r="5" fill="#7A3199"/>
<circle cx="65.1027" cy="65.9583" r="5" fill="#7A3199"/>
<circle cx="65.1027" cy="125.958" r="5" fill="#7A3199"/>
<circle cx="65.1027" cy="185.958" r="5" fill="#7A3199"/>
<circle cx="65.1027" cy="245.958" r="5" fill="#7A3199"/>
<circle cx="65.1027" cy="305.958" r="5" fill="#7A3199"/>
<circle cx="65.1027" cy="365.958" r="5" fill="#7A3199"/>
<circle cx="125.103" cy="5.95825" r="5" fill="#7A3199"/>
<circle cx="125.103" cy="65.9583" r="5" fill="#7A3199"/>
<circle cx="125.103" cy="125.958" r="5" fill="#7A3199"/>
<circle cx="125.103" cy="185.958" r="5" fill="#7A3199"/>
<circle cx="125.103" cy="245.958" r="5" fill="#7A3199"/>
<circle cx="125.103" cy="305.958" r="5" fill="#7A3199"/>
<circle cx="125.103" cy="365.958" r="5" fill="#7A3199"/>
<circle cx="185.103" cy="5.95825" r="5" fill="#7A3199"/>
<circle cx="185.103" cy="65.9583" r="5" fill="#7A3199"/>
<circle cx="185.103" cy="125.958" r="5" fill="#7A3199"/>
<circle cx="185.103" cy="185.958" r="5" fill="#7A3199"/>
<circle cx="185.103" cy="245.958" r="5" fill="#7A3199"/>
<circle cx="185.103" cy="305.958" r="5" fill="#7A3199"/>
<circle cx="185.103" cy="365.958" r="5" fill="#7A3199"/>
<circle cx="245.103" cy="5.95825" r="5" fill="#7A3199"/>
<circle cx="245.103" cy="65.9583" r="5" fill="#7A3199"/>
<circle cx="245.103" cy="125.958" r="5" fill="#7A3199"/>
<circle cx="245.103" cy="185.958" r="5" fill="#7A3199"/>
<circle cx="245.103" cy="245.958" r="5" fill="#7A3199"/>
<circle cx="245.103" cy="305.958" r="5" fill="#7A3199"/>
<circle cx="245.103" cy="365.958" r="5" fill="#7A3199"/>
<circle cx="305.103" cy="5.95825" r="5" fill="#7A3199"/>
<circle cx="305.103" cy="65.9583" r="5" fill="#7A3199"/>
<circle cx="305.103" cy="125.958" r="5" fill="#7A3199"/>
<circle cx="305.103" cy="185.958" r="5" fill="#7A3199"/>
<circle cx="305.103" cy="245.958" r="5" fill="#7A3199"/>
<circle cx="305.103" cy="305.958" r="5" fill="#7A3199"/>
<circle cx="305.103" cy="365.958" r="5" fill="#7A3199"/>
<circle cx="365.103" cy="5.95825" r="5" fill="#7A3199"/>
<circle cx="365.103" cy="65.9583" r="5" fill="#7A3199"/>
<circle cx="365.103" cy="125.958" r="5" fill="#7A3199"/>
<circle cx="365.103" cy="185.958" r="5" fill="#7A3199"/>
<circle cx="365.103" cy="245.958" r="5" fill="#7A3199"/>
<circle cx="365.103" cy="305.958" r="5" fill="#7A3199"/>
<circle cx="365.103" cy="365.958" r="5" fill="#7A3199"/>
<circle cx="425.103" cy="5.95825" r="5" fill="#7A3199"/>
<circle cx="425.103" cy="65.9583" r="5" fill="#7A3199"/>
<circle cx="425.103" cy="125.958" r="5" fill="#7A3199"/>
<circle cx="425.103" cy="185.958" r="5" fill="#7A3199"/>
<circle cx="425.103" cy="245.958" r="5" fill="#7A3199"/>
<circle cx="425.103" cy="305.958" r="5" fill="#7A3199"/>
<circle cx="425.103" cy="365.958" r="5" fill="#7A3199"/>
<circle cx="485.103" cy="5.95825" r="5" fill="#7A3199"/>
<circle cx="485.103" cy="65.9583" r="5" fill="#7A3199"/>
<circle cx="485.103" cy="125.958" r="5" fill="#7A3199"/>
<circle cx="485.103" cy="185.958" r="5" fill="#7A3199"/>
<circle cx="485.103" cy="245.958" r="5" fill="#7A3199"/>
<circle cx="485.103" cy="305.958" r="5" fill="#7A3199"/>
<circle cx="485.103" cy="365.958" r="5" fill="#7A3199"/>
<circle cx="545.103" cy="5.95825" r="5" fill="#7A3199"/>
<circle cx="545.103" cy="65.9583" r="5" fill="#7A3199"/>
<circle cx="545.103" cy="125.958" r="5" fill="#7A3199"/>
<circle cx="545.103" cy="185.958" r="5" fill="#7A3199"/>
<circle cx="545.103" cy="245.958" r="5" fill="#7A3199"/>
<circle cx="545.103" cy="305.958" r="5" fill="#7A3199"/>
<circle cx="545.103" cy="365.958" r="5" fill="#7A3199"/>
<g filter="url(#filter0_d_103_152)">
<rect x="521" y="111.821" width="65" height="65" rx="5" transform="rotate(-16.8315 521 111.821)" fill="white"/>
<path fill-rule="evenodd" clip-rule="evenodd" d="M546.917 133.716C546.104 130.236 546.647 126.578 548.434 123.485C550.221 120.391 553.119 118.093 556.539 117.059C559.959 116.024 563.644 116.33 566.847 117.914C570.049 119.499 572.528 122.243 573.781 125.589C574.486 124.903 575.356 124.411 576.306 124.159C577.257 123.907 578.256 123.903 579.209 124.15C580.161 124.396 581.034 124.883 581.743 125.564C582.452 126.245 582.974 127.098 583.259 128.039L584.465 132.027C584.691 132.773 584.762 133.557 584.675 134.332C584.587 135.106 584.342 135.855 583.955 136.531C583.568 137.208 583.047 137.798 582.424 138.267C581.801 138.735 581.089 139.071 580.331 139.255L580.333 139.263C578.961 139.678 577.479 139.531 576.214 138.854C574.95 138.177 574.006 137.025 573.591 135.652L571.085 127.369C570.245 124.592 568.336 122.263 565.779 120.894C563.222 119.524 560.225 119.227 557.449 120.067C554.672 120.907 552.343 122.815 550.974 125.372C549.605 127.93 549.307 130.926 550.147 133.703L552.653 141.986C553.068 143.359 552.921 144.841 552.244 146.105C551.567 147.37 550.415 148.313 549.042 148.729L549.04 148.721C548.308 148.988 547.529 149.103 546.75 149.058C545.972 149.014 545.211 148.811 544.514 148.463C543.817 148.114 543.198 147.627 542.696 147.031C542.194 146.435 541.818 145.743 541.593 144.997L540.386 141.009C540.101 140.067 540.063 139.069 540.276 138.109C540.489 137.148 540.945 136.259 541.601 135.527C542.257 134.794 543.091 134.242 544.022 133.925C544.953 133.608 545.95 133.536 546.917 133.716ZM548.362 138.596C548.162 137.935 547.708 137.38 547.099 137.055C546.49 136.729 545.776 136.658 545.115 136.859C544.454 137.059 543.9 137.513 543.574 138.122C543.248 138.731 543.178 139.445 543.378 140.106L544.584 144.094C544.784 144.755 545.239 145.31 545.848 145.636C546.456 145.962 547.17 146.033 547.831 145.833C548.492 145.633 549.047 145.178 549.373 144.569C549.699 143.96 549.769 143.247 549.569 142.586C549.57 142.588 549.569 142.586 549.569 142.586L548.363 138.598L548.362 138.596ZM553.139 132.8C552.539 130.817 552.751 128.676 553.729 126.85C554.707 125.023 556.371 123.66 558.354 123.06C560.338 122.46 562.478 122.672 564.305 123.65C566.131 124.629 567.494 126.292 568.094 128.275L569.904 134.258C570.426 135.982 570.336 137.832 569.65 139.498C568.963 141.163 567.723 142.54 566.139 143.396L567.541 148.03C567.661 148.427 567.618 148.855 567.423 149.22C567.227 149.585 566.894 149.858 566.498 149.978C566.101 150.098 565.673 150.055 565.308 149.86C564.942 149.664 564.67 149.332 564.55 148.935L563.147 144.299C561.354 144.464 559.558 144.006 558.064 143C556.57 141.995 555.469 140.504 554.948 138.78L553.138 132.798L553.139 132.8ZM555.933 130.322L556.176 130.249C556.573 130.129 557.001 130.171 557.366 130.367C557.731 130.562 558.004 130.895 558.124 131.292C558.244 131.688 558.201 132.116 558.006 132.482C557.81 132.847 557.477 133.12 557.081 133.24L556.582 133.391L557.487 136.382L557.986 136.231C558.382 136.111 558.81 136.153 559.176 136.349C559.541 136.545 559.814 136.877 559.934 137.274C560.054 137.671 560.011 138.099 559.816 138.464C559.62 138.829 559.287 139.102 558.891 139.222L558.647 139.296C559.221 140.078 560.023 140.663 560.943 140.97C561.863 141.277 562.856 141.291 563.785 141.01C564.713 140.73 565.532 140.168 566.127 139.402C566.723 138.636 567.066 137.704 567.11 136.735L564.873 137.412C564.476 137.532 564.048 137.49 563.683 137.294C563.317 137.098 563.045 136.766 562.925 136.369C562.805 135.972 562.847 135.544 563.043 135.179C563.239 134.814 563.571 134.541 563.968 134.421L566.461 133.667L565.556 130.676L563.063 131.43C562.666 131.55 562.238 131.507 561.873 131.312C561.508 131.116 561.235 130.784 561.115 130.387C560.995 129.99 561.038 129.562 561.233 129.197C561.429 128.831 561.762 128.559 562.158 128.439L564.396 127.762C563.821 126.981 563.019 126.397 562.099 126.091C561.179 125.784 560.187 125.77 559.259 126.051C558.331 126.332 557.513 126.893 556.917 127.658C556.322 128.423 555.978 129.354 555.933 130.322ZM577.021 127.205C575.645 127.622 574.866 129.076 575.283 130.452L576.489 134.44C576.689 135.101 577.143 135.656 577.752 135.982C578.361 136.308 579.075 136.379 579.736 136.179C580.397 135.979 580.951 135.524 581.277 134.915C581.603 134.307 581.674 133.593 581.474 132.932L580.268 128.944C579.852 127.568 578.397 126.789 577.021 127.205Z" fill="url(#paint0_linear_103_152)"/>
</g>
<g filter="url(#filter1_d_103_152)">
<rect x="479.188" y="278" width="63" height="62" rx="5" transform="rotate(15.1351 479.188 278)" fill="white" shape-rendering="crispEdges"/>
<path d="M510.586 316.757C509.968 319.043 508.467 320.989 506.414 322.168C504.36 323.347 501.922 323.663 499.636 323.044C497.35 322.426 495.404 320.925 494.225 318.871C493.046 316.818 492.73 314.38 493.349 312.094L496.612 300.028C497.231 297.742 498.732 295.795 500.785 294.616C502.839 293.437 505.277 293.122 507.562 293.74C509.848 294.358 511.795 295.859 512.974 297.913C514.153 299.967 514.468 302.404 513.85 304.69L510.586 316.757Z" stroke="url(#paint1_linear_103_152)" stroke-width="3" stroke-linecap="round" stroke-linejoin="round"/>
<path d="M518.739 320.812C518.192 322.852 517.248 324.763 515.96 326.437C514.672 328.111 513.067 329.514 511.235 330.566C509.404 331.617 507.383 332.297 505.288 332.565C503.193 332.833 501.066 332.685 499.029 332.129L495.581 331.197C493.542 330.65 491.63 329.706 489.956 328.418C488.282 327.13 486.879 325.525 485.827 323.693C484.776 321.862 484.096 319.841 483.828 317.746C483.56 315.651 483.708 313.524 484.264 311.487M497.305 331.663L495.44 338.558" stroke="url(#paint2_linear_103_152)" stroke-width="3" stroke-linecap="round" stroke-linejoin="round"/>
</g>
<defs>
<filter id="filter0_d_103_152" x="517" y="93" width="89.0366" height="89.0367" filterUnits="userSpaceOnUse" color-interpolation-filters="sRGB">
<feFlood flood-opacity="0" result="BackgroundImageFix"/>
<feColorMatrix in="SourceAlpha" type="matrix" values="0 0 0 0 0 0 0 0 0 0 0 0 0 0 0 0 0 0 127 0" result="hardAlpha"/>
<feOffset dy="4"/>
<feGaussianBlur stdDeviation="2"/>
<feComposite in2="hardAlpha" operator="out"/>
<feColorMatrix type="matrix" values="0 0 0 0 0 0 0 0 0 0 0 0 0 0 0 0 0 0 0.25 0"/>
<feBlend mode="normal" in2="BackgroundImageFix" result="effect1_dropShadow_103_152"/>
<feBlend mode="normal" in="SourceGraphic" in2="effect1_dropShadow_103_152" result="shape"/>
</filter>
<filter id="filter1_d_103_152" x="459" y="278" width="85.0027" height="84.2985" filterUnits="userSpaceOnUse" color-interpolation-filters="sRGB">
<feFlood flood-opacity="0" result="BackgroundImageFix"/>
<feColorMatrix in="SourceAlpha" type="matrix" values="0 0 0 0 0 0 0 0 0 0 0 0 0 0 0 0 0 0 127 0" result="hardAlpha"/>
<feOffset dy="4"/>
<feGaussianBlur stdDeviation="2"/>
<feComposite in2="hardAlpha" operator="out"/>
<feColorMatrix type="matrix" values="0 0 0 0 0 0 0 0 0 0 0 0 0 0 0 0 0 0 0.25 0"/>
<feBlend mode="normal" in2="BackgroundImageFix" result="effect1_dropShadow_103_152"/>
<feBlend mode="normal" in="SourceGraphic" in2="effect1_dropShadow_103_152" result="shape"/>
</filter>
<linearGradient id="paint0_linear_103_152" x1="556.539" y1="117.059" x2="566.498" y2="149.978" gradientUnits="userSpaceOnUse">
<stop stop-color="#7A3199"/>
<stop offset="1" stop-color="#161033"/>
</linearGradient>
<linearGradient id="paint1_linear_103_152" x1="507.562" y1="293.74" x2="499.636" y2="323.044" gradientUnits="userSpaceOnUse">
<stop stop-color="#7A3199"/>
<stop offset="1" stop-color="#161033"/>
</linearGradient>
<linearGradient id="paint2_linear_103_152" x1="501.501" y1="316.149" x2="495.44" y2="338.558" gradientUnits="userSpaceOnUse">
<stop stop-color="#7A3199"/>
<stop offset="1" stop-color="#161033"/>
</linearGradient>
</defs>
</svg>
