<svg width="40" height="40" viewBox="0 0 40 40" fill="none" xmlns="http://www.w3.org/2000/svg">
<g id="pepicons-pencil:arrow-right">
<g id="Group">
<path id="Vector" fill-rule="evenodd" clip-rule="evenodd" d="M22.6939 11.232C22.8977 11.0624 23.1604 10.9805 23.4244 11.0045C23.6885 11.0285 23.9322 11.1564 24.1019 11.36L30.7679 19.36C30.9302 19.5645 31.0061 19.8244 30.9793 20.0841C30.9526 20.3438 30.8253 20.5827 30.6248 20.7498C30.4242 20.9169 30.1663 20.999 29.906 20.9785C29.6458 20.958 29.4038 20.8365 29.2319 20.64L22.5659 12.64C22.3963 12.4363 22.3145 12.1736 22.3385 11.9095C22.3625 11.6455 22.4903 11.4018 22.6939 11.232Z" fill="black"/>
<path id="Vector_2" fill-rule="evenodd" clip-rule="evenodd" d="M22.6939 28.768C22.4903 28.5982 22.3625 28.3545 22.3385 28.0905C22.3145 27.8265 22.3963 27.5637 22.5659 27.36L29.2319 19.36C29.4038 19.1635 29.6458 19.042 29.906 19.0215C30.1663 19.001 30.4242 19.0831 30.6248 19.2502C30.8253 19.4173 30.9526 19.6563 30.9793 19.916C31.0061 20.1756 30.9302 20.4355 30.7679 20.64L24.1019 28.64C23.9322 28.8436 23.6885 28.9715 23.4244 28.9955C23.1604 29.0195 22.8977 28.9377 22.6939 28.768Z" fill="black"/>
<path id="Vector_3" fill-rule="evenodd" clip-rule="evenodd" d="M31 20C31 20.2652 30.8946 20.5196 30.7071 20.7071C30.5196 20.8946 30.2652 21 30 21H10C9.73478 21 9.48043 20.8946 9.29289 20.7071C9.10536 20.5196 9 20.2652 9 20C9 19.7348 9.10536 19.4804 9.29289 19.2929C9.48043 19.1054 9.73478 19 10 19H30C30.2652 19 30.5196 19.1054 30.7071 19.2929C30.8946 19.4804 31 19.7348 31 20Z" fill="black"/>
</g>
</g>
</svg>
