<svg width="1437" height="569" viewBox="0 0 1437 569" fill="none" xmlns="http://www.w3.org/2000/svg">
<path d="M0 288.808H189.75L267.59 531L327.593 0L428.678 397.374L520.573 201.69L768.15 288.808H1439" stroke="#7A3199" stroke-width="0.5"/>
<path d="M1 306.808H190.75L268.59 549L328.593 18L429.678 415.374L521.573 219.69L769.15 306.808H1440" stroke="#7A3199" stroke-width="0.5"/>
<path d="M2 325.808H191.75L269.59 568L329.593 37L430.678 434.374L522.573 238.69L770.15 325.808H1441" stroke="#7A3199" stroke-width="0.5"/>
<path d="M925.55 212.6C925.55 218.7 924.15 224.3 921.35 229.4C918.55 234.4 914.25 238.45 908.45 241.55C902.65 244.65 895.45 246.2 886.85 246.2H870.95V284H845.3V178.7H886.85C895.25 178.7 902.35 180.15 908.15 183.05C913.95 185.95 918.3 189.95 921.2 195.05C924.1 200.15 925.55 206 925.55 212.6ZM884.9 225.8C889.8 225.8 893.45 224.65 895.85 222.35C898.25 220.05 899.45 216.8 899.45 212.6C899.45 208.4 898.25 205.15 895.85 202.85C893.45 200.55 889.8 199.4 884.9 199.4H870.95V225.8H884.9ZM977.004 285.2C968.804 285.2 961.404 283.45 954.804 279.95C948.304 276.45 943.154 271.45 939.354 264.95C935.654 258.45 933.804 250.85 933.804 242.15C933.804 233.55 935.704 226 939.504 219.5C943.304 212.9 948.504 207.85 955.104 204.35C961.704 200.85 969.104 199.1 977.304 199.1C985.504 199.1 992.904 200.85 999.504 204.35C1006.1 207.85 1011.3 212.9 1015.1 219.5C1018.9 226 1020.8 233.55 1020.8 242.15C1020.8 250.75 1018.85 258.35 1014.95 264.95C1011.15 271.45 1005.9 276.45 999.204 279.95C992.604 283.45 985.204 285.2 977.004 285.2ZM977.004 263C981.904 263 986.054 261.2 989.454 257.6C992.954 254 994.704 248.85 994.704 242.15C994.704 235.45 993.004 230.3 989.604 226.7C986.304 223.1 982.204 221.3 977.304 221.3C972.304 221.3 968.154 223.1 964.854 226.7C961.554 230.2 959.904 235.35 959.904 242.15C959.904 248.85 961.504 254 964.704 257.6C968.004 261.2 972.104 263 977.004 263ZM1029.31 242C1029.31 233.4 1030.91 225.85 1034.11 219.35C1037.41 212.85 1041.86 207.85 1047.46 204.35C1053.06 200.85 1059.31 199.1 1066.21 199.1C1071.71 199.1 1076.71 200.25 1081.21 202.55C1085.81 204.85 1089.41 207.95 1092.01 211.85V173H1117.66V284H1092.01V272C1089.61 276 1086.16 279.2 1081.66 281.6C1077.26 284 1072.11 285.2 1066.21 285.2C1059.31 285.2 1053.06 283.45 1047.46 279.95C1041.86 276.35 1037.41 271.3 1034.11 264.8C1030.91 258.2 1029.31 250.6 1029.31 242ZM1092.01 242.15C1092.01 235.75 1090.21 230.7 1086.61 227C1083.11 223.3 1078.81 221.45 1073.71 221.45C1068.61 221.45 1064.26 223.3 1060.66 227C1057.16 230.6 1055.41 235.6 1055.41 242C1055.41 248.4 1057.16 253.5 1060.66 257.3C1064.26 261 1068.61 262.85 1073.71 262.85C1078.81 262.85 1083.11 261 1086.61 257.3C1090.21 253.6 1092.01 248.55 1092.01 242.15ZM1131.12 242.15C1131.12 233.45 1132.87 225.85 1136.37 219.35C1139.97 212.85 1144.92 207.85 1151.22 204.35C1157.62 200.85 1164.92 199.1 1173.12 199.1C1183.62 199.1 1192.37 201.85 1199.37 207.35C1206.47 212.85 1211.12 220.6 1213.32 230.6H1186.02C1183.72 224.2 1179.27 221 1172.67 221C1167.97 221 1164.22 222.85 1161.42 226.55C1158.62 230.15 1157.22 235.35 1157.22 242.15C1157.22 248.95 1158.62 254.2 1161.42 257.9C1164.22 261.5 1167.97 263.3 1172.67 263.3C1179.27 263.3 1183.72 260.1 1186.02 253.7H1213.32C1211.12 263.5 1206.47 271.2 1199.37 276.8C1192.27 282.4 1183.52 285.2 1173.12 285.2C1164.92 285.2 1157.62 283.45 1151.22 279.95C1144.92 276.45 1139.97 271.45 1136.37 264.95C1132.87 258.45 1131.12 250.85 1131.12 242.15ZM1221.94 242C1221.94 233.4 1223.54 225.85 1226.74 219.35C1230.04 212.85 1234.49 207.85 1240.09 204.35C1245.69 200.85 1251.94 199.1 1258.84 199.1C1264.74 199.1 1269.89 200.3 1274.29 202.7C1278.79 205.1 1282.24 208.25 1284.64 212.15V200.3H1310.29V284H1284.64V272.15C1282.14 276.05 1278.64 279.2 1274.14 281.6C1269.74 284 1264.59 285.2 1258.69 285.2C1251.89 285.2 1245.69 283.45 1240.09 279.95C1234.49 276.35 1230.04 271.3 1226.74 264.8C1223.54 258.2 1221.94 250.6 1221.94 242ZM1284.64 242.15C1284.64 235.75 1282.84 230.7 1279.24 227C1275.74 223.3 1271.44 221.45 1266.34 221.45C1261.24 221.45 1256.89 223.3 1253.29 227C1249.79 230.6 1248.04 235.6 1248.04 242C1248.04 248.4 1249.79 253.5 1253.29 257.3C1256.89 261 1261.24 262.85 1266.34 262.85C1271.44 262.85 1275.74 261 1279.24 257.3C1282.84 253.6 1284.64 248.55 1284.64 242.15ZM1362.89 285.2C1355.59 285.2 1349.09 283.95 1343.39 281.45C1337.69 278.95 1333.19 275.55 1329.89 271.25C1326.59 266.85 1324.74 261.95 1324.34 256.55H1349.69C1349.99 259.45 1351.34 261.8 1353.74 263.6C1356.14 265.4 1359.09 266.3 1362.59 266.3C1365.79 266.3 1368.24 265.7 1369.94 264.5C1371.74 263.2 1372.64 261.55 1372.64 259.55C1372.64 257.15 1371.39 255.4 1368.89 254.3C1366.39 253.1 1362.34 251.8 1356.74 250.4C1350.74 249 1345.74 247.55 1341.74 246.05C1337.74 244.45 1334.29 242 1331.39 238.7C1328.49 235.3 1327.04 230.75 1327.04 225.05C1327.04 220.25 1328.34 215.9 1330.94 212C1333.64 208 1337.54 204.85 1342.64 202.55C1347.84 200.25 1353.99 199.1 1361.09 199.1C1371.59 199.1 1379.84 201.7 1385.84 206.9C1391.94 212.1 1395.44 219 1396.34 227.6H1372.64C1372.24 224.7 1370.94 222.4 1368.74 220.7C1366.64 219 1363.84 218.15 1360.34 218.15C1357.34 218.15 1355.04 218.75 1353.44 219.95C1351.84 221.05 1351.04 222.6 1351.04 224.6C1351.04 227 1352.29 228.8 1354.79 230C1357.39 231.2 1361.39 232.4 1366.79 233.6C1372.99 235.2 1378.04 236.8 1381.94 238.4C1385.84 239.9 1389.24 242.4 1392.14 245.9C1395.14 249.3 1396.69 253.9 1396.79 259.7C1396.79 264.6 1395.39 269 1392.59 272.9C1389.89 276.7 1385.94 279.7 1380.74 281.9C1375.64 284.1 1369.69 285.2 1362.89 285.2ZM1459.14 262.25V284H1446.09C1436.79 284 1429.54 281.75 1424.34 277.25C1419.14 272.65 1416.54 265.2 1416.54 254.9V221.6H1406.34V200.3H1416.54V179.9H1442.19V200.3H1458.99V221.6H1442.19V255.2C1442.19 257.7 1442.79 259.5 1443.99 260.6C1445.19 261.7 1447.19 262.25 1449.99 262.25H1459.14Z" fill="#EEEEEE"/>
</svg>
