<svg width="87" height="88" viewBox="0 0 87 88" fill="none" xmlns="http://www.w3.org/2000/svg">
<g filter="url(#filter0_d_103_229)">
<rect x="3" y="18.8213" width="65" height="65" rx="5" transform="rotate(-16.8315 3 18.8213)" fill="white"/>
<path fill-rule="evenodd" clip-rule="evenodd" d="M28.9166 40.7158C28.1043 37.2364 28.6469 33.5783 30.4341 30.4845C32.2213 27.3908 35.1191 25.0932 38.5389 24.0587C41.9588 23.0241 45.6442 23.3301 48.8466 24.9144C52.049 26.4988 54.5283 29.2427 55.7809 32.5888C56.486 31.9033 57.3557 31.4107 58.3063 31.1587C59.2569 30.9066 60.2564 30.9035 61.2086 31.1496C62.1608 31.3958 63.0335 31.8829 63.7429 32.5641C64.4523 33.2452 64.9743 34.0975 65.2589 35.0389L66.4654 39.0271C66.6911 39.7731 66.7623 40.5574 66.6745 41.3319C66.5868 42.1063 66.3419 42.8548 65.9549 43.5313C65.5679 44.2079 65.0469 44.7984 64.4238 45.2667C63.8007 45.7349 63.0886 46.0711 62.3311 46.2547L62.3335 46.2627C60.9605 46.678 59.4789 46.5309 58.2144 45.8538C56.9499 45.1767 56.0061 44.025 55.5908 42.6521L53.0849 34.3686C52.245 31.5921 50.3364 29.2629 47.7792 27.8936C45.222 26.5242 42.2255 26.2268 39.4489 27.0667C36.6724 27.9067 34.3432 29.8152 32.9739 32.3724C31.6045 34.9297 31.3071 37.9262 32.147 40.7027L34.6529 48.9861C35.0683 50.3591 34.9212 51.8408 34.2441 53.1053C33.5669 54.3698 32.4152 55.3135 31.0423 55.7288L31.0399 55.7208C30.3076 55.9879 29.5286 56.1028 28.7504 56.0585C27.9723 56.0141 27.2113 55.8114 26.5142 55.4629C25.817 55.1143 25.1983 54.6271 24.696 54.0311C24.1936 53.4352 23.8182 52.743 23.5926 51.9969L22.3861 48.0087C22.101 47.0675 22.0631 46.0687 22.276 45.1085C22.4888 44.1484 22.9452 43.2592 23.6013 42.5265C24.2573 41.7939 25.0909 41.2424 26.0219 40.9253C26.9528 40.6082 27.9497 40.536 28.9166 40.7158ZM30.3624 45.5957C30.1621 44.9347 29.7075 44.3804 29.0985 44.0546C28.4895 43.7288 27.776 43.6582 27.115 43.8585C26.454 44.0588 25.8997 44.5134 25.5739 45.1224C25.2481 45.7314 25.1775 46.4449 25.3778 47.1059L26.5843 51.094C26.7843 51.7551 27.2387 52.3097 27.8475 52.6357C28.4564 52.9617 29.1699 53.0326 29.8309 52.8326C30.492 52.6326 31.0466 52.1782 31.3726 51.5693C31.6987 50.9604 31.7695 50.247 31.5695 49.5859C31.5701 49.5879 31.5695 49.5859 31.5695 49.5859L30.363 45.5977L30.3624 45.5957ZM35.1388 39.7998C34.5388 37.8166 34.7512 35.6763 35.7294 33.8496C36.7075 32.023 38.3712 30.6598 40.3544 30.0598C42.3376 29.4599 44.478 29.6723 46.3046 30.6505C48.1312 31.6286 49.4944 33.2923 50.0944 35.2755L51.9041 41.2577C52.4256 42.9815 52.3356 44.8325 51.6495 46.4976C50.9634 48.1627 49.7233 49.5397 48.1388 50.3957L49.5408 55.03C49.6607 55.4266 49.6183 55.8547 49.4226 56.22C49.227 56.5854 48.8943 56.858 48.4976 56.978C48.101 57.098 47.6729 57.0555 47.3076 56.8599C46.9423 56.6642 46.6696 56.3315 46.5496 55.9349L45.1471 51.2986C43.3538 51.4644 41.5583 51.0057 40.0643 50.0002C38.5703 48.9946 37.4694 47.5039 36.9479 45.7801L35.1382 39.7978L35.1388 39.7998ZM37.9327 37.3222L38.176 37.2486C38.5726 37.1286 39.0007 37.1711 39.366 37.3667C39.7313 37.5623 40.004 37.8951 40.124 38.2917C40.244 38.6884 40.2015 39.1164 40.0059 39.4818C39.8102 39.8471 39.4775 40.1197 39.0808 40.2397L38.5823 40.3905L39.4872 43.3817L39.9857 43.2308C40.3824 43.1109 40.8104 43.1533 41.1757 43.349C41.5411 43.5446 41.8137 43.8773 41.9337 44.274C42.0537 44.6706 42.0112 45.0987 41.8156 45.464C41.62 45.8293 41.2872 46.102 40.8906 46.222L40.6473 46.2956C41.2209 47.0779 42.0231 47.6629 42.9433 47.9701C43.8635 48.2772 44.8563 48.2913 45.7848 48.0104C46.7133 47.7296 47.5318 47.1675 48.1274 46.4018C48.723 45.6361 49.0664 44.7045 49.1102 43.7354L46.8728 44.4122C46.4762 44.5322 46.0481 44.4897 45.6828 44.2941C45.3175 44.0985 45.0448 43.7658 44.9248 43.3691C44.8048 42.9725 44.8473 42.5444 45.043 42.1791C45.2386 41.8137 45.5713 41.5411 45.968 41.4211L48.4606 40.6671L47.5557 37.6759L45.0631 38.43C44.6664 38.55 44.2384 38.5075 43.8731 38.3119C43.5077 38.1162 43.2351 37.7835 43.1151 37.3869C42.9951 36.9902 43.0376 36.5621 43.2332 36.1968C43.4288 35.8315 43.7616 35.5588 44.1582 35.4389L46.3956 34.762C45.8213 33.9809 45.0191 33.397 44.0993 33.0906C43.1795 32.7842 42.1873 32.7704 41.2593 33.0511C40.3314 33.3319 39.5132 33.8933 38.9175 34.6582C38.3217 35.423 37.9777 36.3537 37.9327 37.3222ZM59.0211 34.2053C57.6452 34.6215 56.8663 36.076 57.2825 37.4519L58.489 41.4401C58.689 42.1012 59.1434 42.6557 59.7523 42.9818C60.3612 43.3078 61.0746 43.3786 61.7357 43.1786C62.3968 42.9787 62.9513 42.5242 63.2774 41.9154C63.6034 41.3065 63.6742 40.5931 63.4742 39.932L62.2677 35.9438C61.8515 34.5679 60.397 33.789 59.0211 34.2053Z" fill="url(#paint0_linear_103_229)"/>
</g>
<defs>
<filter id="filter0_d_103_229" x="-1" y="0" width="89.0366" height="89.0367" filterUnits="userSpaceOnUse" color-interpolation-filters="sRGB">
<feFlood flood-opacity="0" result="BackgroundImageFix"/>
<feColorMatrix in="SourceAlpha" type="matrix" values="0 0 0 0 0 0 0 0 0 0 0 0 0 0 0 0 0 0 127 0" result="hardAlpha"/>
<feOffset dy="4"/>
<feGaussianBlur stdDeviation="2"/>
<feComposite in2="hardAlpha" operator="out"/>
<feColorMatrix type="matrix" values="0 0 0 0 0 0 0 0 0 0 0 0 0 0 0 0 0 0 0.25 0"/>
<feBlend mode="normal" in2="BackgroundImageFix" result="effect1_dropShadow_103_229"/>
<feBlend mode="normal" in="SourceGraphic" in2="effect1_dropShadow_103_229" result="shape"/>
</filter>
<linearGradient id="paint0_linear_103_229" x1="38.5389" y1="24.0587" x2="48.4976" y2="56.978" gradientUnits="userSpaceOnUse">
<stop stop-color="#7A3199"/>
<stop offset="1" stop-color="#161033"/>
</linearGradient>
</defs>
</svg>
