<svg width="83" height="84" viewBox="0 0 83 84" fill="none" xmlns="http://www.w3.org/2000/svg">
<g filter="url(#filter0_d_103_225)">
<rect x="19.188" width="63" height="62" rx="5" transform="rotate(15.1351 19.188 0)" fill="white" shape-rendering="crispEdges"/>
<path d="M50.5864 38.7566C49.9681 41.0425 48.4671 42.9891 46.4136 44.1683C44.3601 45.3475 41.9222 45.6626 39.6363 45.0443C37.3505 44.426 35.4038 42.925 34.2247 40.8715C33.0455 38.8179 32.7304 36.3801 33.3487 34.0942L36.6124 22.0278C37.2307 19.7419 38.7317 17.7953 40.7852 16.6161C42.8388 15.437 45.2766 15.1219 47.5625 15.7401C49.8483 16.3584 51.795 17.8594 52.9741 19.913C54.1533 21.9665 54.4684 24.4044 53.8501 26.6902L50.5864 38.7566Z" stroke="url(#paint0_linear_103_225)" stroke-width="3" stroke-linecap="round" stroke-linejoin="round"/>
<path d="M58.739 42.8117C58.1922 44.8515 57.2478 46.7632 55.9601 48.4371C54.6724 50.1109 53.0668 51.5139 51.2354 52.5655C49.404 53.6172 47.3829 54.2967 45.2881 54.565C43.1934 54.8334 41.0663 54.6854 39.0289 54.1295L35.5814 53.197C33.5415 52.6501 31.6298 51.7057 29.956 50.418C28.2821 49.1303 26.8791 47.5247 25.8275 45.6933C24.7759 43.8619 24.0964 41.8408 23.828 39.746C23.5596 37.6513 23.7076 35.5242 24.2636 33.4868M37.3051 53.6632L35.4402 60.5583" stroke="url(#paint1_linear_103_225)" stroke-width="3" stroke-linecap="round" stroke-linejoin="round"/>
</g>
<defs>
<filter id="filter0_d_103_225" x="-1" y="0" width="85.0027" height="84.2985" filterUnits="userSpaceOnUse" color-interpolation-filters="sRGB">
<feFlood flood-opacity="0" result="BackgroundImageFix"/>
<feColorMatrix in="SourceAlpha" type="matrix" values="0 0 0 0 0 0 0 0 0 0 0 0 0 0 0 0 0 0 127 0" result="hardAlpha"/>
<feOffset dy="4"/>
<feGaussianBlur stdDeviation="2"/>
<feComposite in2="hardAlpha" operator="out"/>
<feColorMatrix type="matrix" values="0 0 0 0 0 0 0 0 0 0 0 0 0 0 0 0 0 0 0.25 0"/>
<feBlend mode="normal" in2="BackgroundImageFix" result="effect1_dropShadow_103_225"/>
<feBlend mode="normal" in="SourceGraphic" in2="effect1_dropShadow_103_225" result="shape"/>
</filter>
<linearGradient id="paint0_linear_103_225" x1="47.5625" y1="15.7401" x2="39.6363" y2="45.0443" gradientUnits="userSpaceOnUse">
<stop stop-color="#7A3199"/>
<stop offset="1" stop-color="#161033"/>
</linearGradient>
<linearGradient id="paint1_linear_103_225" x1="41.5013" y1="38.1493" x2="35.4402" y2="60.5583" gradientUnits="userSpaceOnUse">
<stop stop-color="#7A3199"/>
<stop offset="1" stop-color="#161033"/>
</linearGradient>
</defs>
</svg>
